<?xml version="1.0" encoding="utf-8"?>
<!-- Svg Vector Icons : http://www.onlinewebfonts.com/icon -->
<!DOCTYPE svg PUBLIC "-//W3C//DTD SVG 1.1//EN" "http://www.w3.org/Graphics/SVG/1.1/DTD/svg11.dtd">
<svg version="1.1" xmlns="http://www.w3.org/2000/svg" xmlns:xlink="http://www.w3.org/1999/xlink" x="0px" y="0px" viewBox="0 0 256 256" enable-background="new 0 0 256 256" xml:space="preserve">
<metadata> Svg Vector Icons : http://www.onlinewebfonts.com/icon </metadata>
<g><g><g><path fill="#000000" d="M54,9.9c-5.1,0.9-6.6,2.1-22.7,18.3L15.9,43.6l-2,5.3C10.6,57.5,10,61,10,70.9c0.1,12.2,2.1,21.7,7.7,36c5,12.5,9.8,21.6,19.2,35.8c19,28.6,47,56.6,76,75.9c29.2,19.4,59.1,29.4,82.4,27.5c11.5-0.9,12.2-1.4,31.7-20.9c18.4-18.5,18.5-18.6,18.9-25.7c0.3-5.5-0.7-9.3-3.7-15.5c-3.4-6.8-8-12.9-15-20c-7.1-7.1-12.7-11.3-19.6-14.8c-6.2-3.1-10.6-4.2-16.3-3.9c-7.6,0.3-8.3,0.8-24.2,16.6l-13.7,13.6L151,174c-6.5-4-15.7-10.2-20.5-13.9c-18.7-14.6-35.1-33.1-46.9-52.6l-3.4-5.6L94,87.9c9-9.1,14.1-14.8,14.9-16.3c5.8-11.4-1-28.5-18.1-44.8c-6.2-5.9-10.8-9.3-16.7-12.4C66.4,10.4,59.7,9,54,9.9z M64,17.8c12.7,3.5,30,19.4,36.9,33.8c3.9,8.1,3.9,14.3,0.3,18.9c-1.1,1.4-8,8.4-15.5,15.8c-8.9,8.8-13.5,13.7-13.5,14.4c0,1.5,4.9,9.9,10.3,18.2c15.4,23.1,36.9,43.9,60.4,58.5c8.4,5.2,11.3,6.6,12.5,6.1c0.6-0.2,7.6-6.9,15.6-15c9.5-9.4,15.3-14.9,16.5-15.4c2.6-1.1,7.7-1,11.8,0.3c15,4.6,35.2,25.2,39,39.8c1,3.7,0.9,7.7-0.3,10.1c-0.6,1.4-6.6,7.7-16.6,17.6c-17.7,17.6-17.4,17.4-26.3,18.2c-24.6,2.1-57.4-10.3-88.7-33.7c-17.8-13.2-37.5-32.5-52.1-50.8c-19-23.9-31.4-48.1-36-70.1c-0.9-4.2-1.1-7.1-1.1-13.4c-0.1-9.1,0.5-12,3.1-18.8l1.8-4.5l13.7-14.1c7.6-7.8,14.5-14.6,15.3-15.1C54.4,16.4,58.2,16.2,64,17.8z"/></g></g></g>
</svg>